<!-- icon666.com - MILLIONS vector ICONS FREE --><svg xmlns="http://www.w3.org/2000/svg" xmlns:xlink="http://www.w3.org/1999/xlink" version="1.1" id="Layer_3" x="0px" y="0px" viewBox="0 0 64 64" style="enable-background:new 0 0 64 64;" xml:space="preserve"><g><g><rect x="48" y="8" style="fill:#AE895D;" width="4" height="4"></rect></g><g><rect x="2" y="8" style="fill:#AE895D;" width="4" height="4"></rect></g><g><rect x="2" y="52" style="fill:#AE895D;" width="4" height="4"></rect></g><g><rect x="48" y="52" style="fill:#AE895D;" width="4" height="4"></rect></g><g><circle style="fill:#694A2B;" cx="57" cy="10" r="5"></circle></g><g><ellipse style="fill:#8C6239;" cx="55.5" cy="10" rx="3.5" ry="4.746"></ellipse></g><g><circle style="fill:#694A2B;" cx="57" cy="54" r="5"></circle></g><g><ellipse style="fill:#8C6239;" cx="55.5" cy="54" rx="3.5" ry="4.746"></ellipse></g><g><polyline style="fill:#694A2B;" points="44,50 44,46 48,46 48,62 44,62 44,58 "></polyline></g><g><polygon style="fill:#8C6239;" points="44,46 44,50 44,58 44,62 46,62 46,46 "></polygon></g><g><polyline style="fill:#694A2B;" points="44,6 44,2 48,2 48,18 44,18 44,14 "></polyline></g><g><polygon style="fill:#8C6239;" points="44,2 44,6 44,14 44,18 46,18 46,2 "></polygon></g><g><rect x="6" y="50" style="fill:#694A2B;" width="38" height="8"></rect></g><g><rect x="6" y="50" style="fill:#8C6239;" width="35" height="8"></rect></g><g><rect x="6" y="6" style="fill:#694A2B;" width="38" height="8"></rect></g><g><rect x="6" y="6" style="fill:#8C6239;" width="35" height="8"></rect></g><g><rect x="10" y="14" style="fill:#AE895D;" width="30" height="36"></rect></g><g><rect x="10" y="14" style="fill:#E8B67C;" width="27" height="36"></rect></g><g><rect x="16" y="18" style="fill:#B9A33E;" width="18" height="6"></rect></g><g><rect x="16" y="18" style="fill:#F7DA52;" width="15" height="6"></rect></g><g><path style="fill:#5F6366;" d="M39.536,29.464l3.929-3.929C45.728,23.272,48.799,22,52,22h0v0c0,3.201-1.272,6.272-3.536,8.536 l-3.929,3.929C42.272,36.728,39.201,38,36,38h0v0C36,34.799,37.272,31.728,39.536,29.464z"></path></g><g><path style="fill:#7E8488;" d="M43.464,25.536l-3.929,3.929c-2.095,2.095-3.327,4.884-3.5,7.826 c1.675-0.595,3.219-1.545,4.5-2.826l3.929-3.929c2.095-2.095,3.327-4.884,3.5-7.826C46.29,23.305,44.745,24.255,43.464,25.536z"></path></g><g><path d="M44,15H6c-0.552,0-1-0.448-1-1V6c0-0.552,0.448-1,1-1h38c0.552,0,1,0.448,1,1v8C45,14.552,44.552,15,44,15z M7,13h36V7H7 V13z"></path></g><g><path d="M6,13H2c-0.552,0-1-0.448-1-1V8c0-0.552,0.448-1,1-1h4v2H3v2h3V13z"></path></g><g><path d="M48,19h-4c-0.552,0-1-0.448-1-1v-4h2v3h2V3h-2v3h-2V2c0-0.552,0.448-1,1-1h4c0.552,0,1,0.448,1,1v16 C49,18.552,48.552,19,48,19z"></path></g><g><rect x="48" y="11" width="4" height="2"></rect></g><g><rect x="48" y="55" width="4" height="2"></rect></g><g><rect x="48" y="7" width="4" height="2"></rect></g><g><path d="M57,16c-3.309,0-6-2.691-6-6s2.691-6,6-6s6,2.691,6,6S60.309,16,57,16z M57,6c-2.206,0-4,1.794-4,4s1.794,4,4,4 s4-1.794,4-4S59.206,6,57,6z"></path></g><g><path d="M44,59H6c-0.552,0-1-0.448-1-1v-8c0-0.552,0.448-1,1-1h38c0.552,0,1,0.448,1,1v8C45,58.552,44.552,59,44,59z M7,57h36v-6 H7V57z"></path></g><g><path d="M6,57H2c-0.552,0-1-0.448-1-1v-4c0-0.552,0.448-1,1-1h4v2H3v2h3V57z"></path></g><g><path d="M48,63h-4c-0.552,0-1-0.448-1-1v-4h2v3h2V47h-2v3h-2v-4c0-0.552,0.448-1,1-1h4c0.552,0,1,0.448,1,1v16 C49,62.552,48.552,63,48,63z"></path></g><g><rect x="48" y="51" width="4" height="2"></rect></g><g><path d="M57,60c-3.309,0-6-2.691-6-6s2.691-6,6-6s6,2.691,6,6S60.309,60,57,60z M57,50c-2.206,0-4,1.794-4,4s1.794,4,4,4 s4-1.794,4-4S59.206,50,57,50z"></path></g><g><rect x="9" y="14" width="2" height="36"></rect></g><g><rect x="39" y="41" width="2" height="9"></rect></g><g><rect x="39" y="14" width="2" height="10"></rect></g><g><path d="M34,25H16c-0.552,0-1-0.448-1-1v-6c0-0.552,0.448-1,1-1h18c0.552,0,1,0.448,1,1v6C35,24.552,34.552,25,34,25z M17,23h16 v-4H17V23z"></path></g><g><rect x="13" y="27" width="24" height="2"></rect></g><g><rect x="13" y="31" width="20" height="2"></rect></g><g><rect x="13" y="35" width="20" height="2"></rect></g><g><rect x="13" y="39" width="16" height="2"></rect></g><g><rect x="13" y="43" width="16" height="2"></rect></g><g><path d="M36,39c-0.552,0-1-0.448-1-1c0-3.491,1.36-6.774,3.829-9.243l3.929-3.929C45.226,22.36,48.509,21,52,21 c0.552,0,1,0.448,1,1c0,3.491-1.36,6.774-3.829,9.243l-3.929,3.929C42.774,37.64,39.491,39,36,39z M50.951,23.049 c-2.561,0.239-4.938,1.352-6.78,3.194l-3.929,3.929c-1.842,1.842-2.955,4.219-3.194,6.78c2.561-0.239,4.938-1.352,6.78-3.194 l3.929-3.929C49.599,27.986,50.712,25.61,50.951,23.049z"></path></g><g><rect x="29.964" y="39.5" transform="matrix(0.7071 -0.7071 0.7071 0.7071 -18.8259 35.5503)" width="7.071" height="2"></rect></g></g></svg>